<?xml version="1.0" encoding="utf-8"?>
<!-- Generator: Adobe Illustrator 16.0.0, SVG Export Plug-In . SVG Version: 6.00 Build 0)  -->
<!DOCTYPE svg PUBLIC "-//W3C//DTD SVG 1.1//EN" "http://www.w3.org/Graphics/SVG/1.1/DTD/svg11.dtd">
<svg version="1.1" id="Layer_1" xmlns="http://www.w3.org/2000/svg" xmlns:xlink="http://www.w3.org/1999/xlink" x="0px" y="0px"
	 width="62.5px" height="68px" viewBox="0 0 62.5 68" enable-background="new 0 0 62.5 68" xml:space="preserve">
<g>
	<path fill="#FE6400" d="M43.319,45.635c3.059-3.148,4.965-7.512,4.965-12.322c-0.002-4.807-1.9-9.171-4.96-12.317
		c-3.054-3.146-7.294-5.093-11.953-5.091c-4.665-0.002-8.901,1.945-11.956,5.093c-3.058,3.146-4.957,7.51-4.956,12.314
		c-0.002,4.798,1.89,9.16,4.947,12.304c3.058,3.15,7.295,5.108,11.965,5.108C36.028,50.726,40.266,48.781,43.319,45.635z
		 M32.75,41.277c1.403,0.09,2.735,0.33,3.986,0.679c-0.691,1.952-1.597,3.532-2.569,4.525c-0.47,0.487-0.95,0.84-1.416,1.066l0,0
		L32.75,41.277z M32.75,38.912l0.002-4.182h5.328c-0.082,1.77-0.31,3.445-0.672,4.966C35.943,39.28,34.382,39.011,32.75,38.912z
		 M39.35,42.916c0.625,0.288,1.211,0.606,1.759,0.953c-0.989,0.965-2.105,1.784-3.33,2.427C38.385,45.29,38.911,44.158,39.35,42.916
		z M40.019,40.63c0.452-1.821,0.73-3.807,0.818-5.897h4.619c-0.258,2.746-1.267,5.255-2.797,7.342
		C41.845,41.53,40.962,41.051,40.019,40.63z M32.75,31.893v-4.179c1.632-0.1,3.19-0.369,4.661-0.783
		c0.357,1.521,0.586,3.197,0.668,4.962H32.75z M29.994,25.348c-1.403-0.091-2.74-0.329-3.989-0.68
		c0.693-1.947,1.598-3.529,2.57-4.525c0.47-0.485,0.949-0.836,1.416-1.065c0.001,0,0.003,0,0.003,0L29.994,25.348z M29.993,27.714
		l0.001,4.179h-5.33c0.083-1.766,0.309-3.441,0.668-4.962C26.8,27.345,28.364,27.616,29.993,27.714z M32.751,25.348l-0.002-6.271
		c0.002,0,0.002,0,0.002,0c0.466,0.229,0.946,0.583,1.416,1.068c0.974,0.994,1.876,2.576,2.569,4.523
		C35.485,25.019,34.153,25.254,32.751,25.348z M37.78,20.333c1.219,0.638,2.338,1.455,3.324,2.417
		c-0.549,0.35-1.13,0.675-1.755,0.964C38.911,22.473,38.388,21.338,37.78,20.333z M23.391,23.712
		c-0.622-0.291-1.207-0.611-1.752-0.962c0.986-0.961,2.101-1.777,3.323-2.417C24.353,21.338,23.83,22.473,23.391,23.712z
		 M22.722,26.002c-0.449,1.82-0.726,3.802-0.817,5.891h-4.616c0.257-2.747,1.265-5.259,2.796-7.349
		C20.898,25.096,21.779,25.583,22.722,26.002z M29.993,34.73v4.182c-1.631,0.099-3.192,0.366-4.661,0.784
		c-0.358-1.521-0.586-3.196-0.669-4.963L29.993,34.73z M29.993,41.273v6.275l-0.002-0.001c-0.468-0.227-0.944-0.579-1.417-1.066
		c-0.971-0.993-1.876-2.573-2.569-4.525C27.256,41.607,28.591,41.367,29.993,41.273z M24.959,46.291
		c-1.221-0.64-2.338-1.458-3.326-2.423c0.545-0.349,1.137-0.661,1.757-0.952C23.83,44.158,24.353,45.288,24.959,46.291z
		 M45.454,31.893h-4.617c-0.088-2.089-0.366-4.069-0.814-5.888c0.942-0.42,1.818-0.909,2.633-1.46
		C44.188,26.634,45.198,29.142,45.454,31.893z M17.288,34.73h4.616c0.09,2.095,0.369,4.078,0.818,5.899
		c-0.941,0.421-1.825,0.902-2.637,1.449C18.551,39.994,17.545,37.482,17.288,34.73z"/>
	<path fill="#FE6400" d="M9.333,50.063c8.973,12.511,26.159,15.17,38.309,5.938c12.153-9.239,14.74-26.931,5.768-39.443
		C46.892,7.474,36.041,3.588,25.935,5.677l-1.276,4.797c9.117-2.831,19.386,0.336,25.359,8.662
		c7.592,10.584,5.403,25.555-4.878,33.373c-10.282,7.815-24.824,5.563-32.417-5.022c-6.867-9.577-5.707-22.722,2.184-30.933
		l3.542,4.938L21.912,8.48L8.811,8.059l3.554,4.955C2.614,22.674,1.081,38.559,9.333,50.063z"/>
</g>
</svg>
