<?xml version="1.0" encoding="utf-8"?>
<!-- Generator: Adobe Illustrator 16.0.0, SVG Export Plug-In . SVG Version: 6.00 Build 0)  -->
<!DOCTYPE svg PUBLIC "-//W3C//DTD SVG 1.1//EN" "http://www.w3.org/Graphics/SVG/1.1/DTD/svg11.dtd">
<svg version="1.1" id="Layer_1" xmlns="http://www.w3.org/2000/svg" xmlns:xlink="http://www.w3.org/1999/xlink" x="0px" y="0px"
	 width="50px" height="50px" viewBox="0 0 50 50" enable-background="new 0 0 50 50" xml:space="preserve">
<path fill="#FE6400" d="M24.375,2.28c-0.814,0-1.476,0.658-1.476,1.468v0.387c0,0.233,0.059,0.451,0.157,0.647
	c0.44-0.019,0.876-0.054,1.318-0.054c0.443,0,0.878,0.035,1.32,0.054c0.094-0.196,0.155-0.414,0.155-0.647V3.748
	C25.848,2.938,25.188,2.28,24.375,2.28z M24.037,23.067c-0.815,0-1.472,0.661-1.472,1.474l-0.002,16.547
	c-0.004,1.413-1.147,2.552-2.554,2.557c-1.417-0.005-2.559-1.144-2.563-2.557c0-0.815-0.66-1.475-1.471-1.475
	c-0.817,0-1.476,0.659-1.476,1.475h-0.001c0.001,3.046,2.47,5.505,5.512,5.505c3.03,0,5.491-2.457,5.499-5.499h0.001V24.097
	C25.509,23.285,24.852,23.067,24.037,23.067z M48.355,24.073c-1.556-1.31-3.745-1.866-6.601-1.866c-2.267,0-4.142,0.396-5.572,1.179
	c-0.96-5.934-4.239-10.976-7.911-14.259c-0.436-0.383-1.1-0.349-1.482,0.087c-0.393,0.442-0.354,1.101,0.079,1.488
	c3.44,3.063,6.532,7.912,7.298,13.456c-1.998-1.617-5.957-2.699-9.857-2.699c-3.849,0-7.777,1.061-9.785,2.638
	c0.779-5.52,3.855-10.343,7.282-13.395c0.431-0.388,0.471-1.051,0.082-1.488c-0.384-0.436-1.052-0.467-1.484-0.083h-0.001
	c-3.663,3.275-6.934,8.297-7.902,14.215c-1.422-0.761-3.271-1.139-5.502-1.139c-2.861,0-5.046,0.557-6.602,1.866
	C2.271,13.748,12.292,5.856,24.374,5.856C36.462,5.856,46.479,13.748,48.355,24.073z"/>
</svg>
