<?xml version="1.0" encoding="utf-8"?>
<!-- Generator: Adobe Illustrator 16.0.0, SVG Export Plug-In . SVG Version: 6.00 Build 0)  -->
<!DOCTYPE svg PUBLIC "-//W3C//DTD SVG 1.1//EN" "http://www.w3.org/Graphics/SVG/1.1/DTD/svg11.dtd">
<svg version="1.1" id="Layer_1" xmlns="http://www.w3.org/2000/svg" xmlns:xlink="http://www.w3.org/1999/xlink" x="0px" y="0px"
	 width="50px" height="50px" viewBox="0 0 50 50" enable-background="new 0 0 50 50" xml:space="preserve">
<path fill="#FE6400" d="M0.841,17.84V5.299c0-0.956,0.725-1.73,1.615-1.73h18.639c0.894,0,1.617,0.774,1.617,1.73V17.84
	c0,0.954-0.723,1.729-1.617,1.729H2.456C1.566,19.569,0.841,18.794,0.841,17.84z M3.042,16.542c0,0.39,0.302,0.709,0.667,0.709
	h16.006c0.367,0,0.67-0.319,0.67-0.709v-9.85c0-0.391-0.303-0.709-0.67-0.709H3.709c-0.366,0-0.667,0.318-0.667,0.709V16.542z
	 M22.847,24.231v1.004c0,1.458-1.09,2.641-2.714,2.641H3.379c-1.628,0-2.947-1.183-2.947-2.641v-1.004
	c0-1.458,1.319-2.639,2.947-2.639h16.753C21.757,21.592,22.847,22.773,22.847,24.231z M25.041,43.493c0,1.04-0.782,1.88-1.751,1.88
	c-0.966,0-1.757-0.84-1.757-1.88c0-1.033,0.791-1.875,1.757-1.875C24.258,41.618,25.041,42.46,25.041,43.493z M19.633,43.493
	c0,1.04-0.784,1.88-1.753,1.88c-0.969,0-1.75-0.84-1.75-1.88c0-1.033,0.781-1.875,1.75-1.875
	C18.849,41.618,19.633,42.46,19.633,43.493z M14.024,43.493c0,1.04-0.783,1.88-1.752,1.88c-0.975,0-1.761-0.84-1.761-1.88
	c0-1.033,0.786-1.875,1.761-1.875C13.241,41.618,14.024,42.46,14.024,43.493z M10.512,31.727c0-1.039,0.786-1.876,1.761-1.876
	c0.967,0,1.752,0.837,1.752,1.876c0,1.035-0.785,1.877-1.752,1.877C11.298,33.604,10.512,32.762,10.512,31.727z M10.512,37.728
	c0-1.037,0.786-1.879,1.761-1.879c0.967,0,1.752,0.842,1.752,1.879s-0.785,1.874-1.752,1.874
	C11.298,39.602,10.512,38.765,10.512,37.728z M27.257,36.361V23.822c0-0.955,0.725-1.731,1.619-1.731h18.638
	c0.891,0,1.614,0.776,1.614,1.731v12.539c0,0.955-0.724,1.729-1.614,1.729H28.876C27.981,38.091,27.257,37.316,27.257,36.361z
	 M29.459,35.063c0,0.394,0.3,0.711,0.668,0.711h16.005c0.368,0,0.667-0.317,0.667-0.711v-9.849c0-0.395-0.299-0.71-0.667-0.71
	H30.127c-0.368,0-0.668,0.315-0.668,0.71V35.063z M49.495,42.754v1.004c0,1.458-1.316,2.639-2.946,2.639H29.796
	c-1.625,0-2.943-1.181-2.943-2.639v-1.004c0-1.459,1.318-2.644,2.943-2.644h16.753C48.179,40.11,49.495,41.295,49.495,42.754z"/>
</svg>
