<?xml version="1.0" encoding="utf-8"?>
<!-- Generator: Adobe Illustrator 16.0.0, SVG Export Plug-In . SVG Version: 6.00 Build 0)  -->
<!DOCTYPE svg PUBLIC "-//W3C//DTD SVG 1.1//EN" "http://www.w3.org/Graphics/SVG/1.1/DTD/svg11.dtd">
<svg version="1.1" id="Layer_1" xmlns="http://www.w3.org/2000/svg" xmlns:xlink="http://www.w3.org/1999/xlink" x="0px" y="0px"
	 width="50px" height="50px" viewBox="0 0 50 50" enable-background="new 0 0 50 50" xml:space="preserve">
<path fill="#FE6400" d="M41.195,7.105H8.45c-2.707,0-4.926,2.225-4.926,4.932v12.8h6.97c0.412-0.024,1.149-0.491,1.314-0.78
	l0.052-0.131l0.06-0.095l5.365-9.198c0.195-0.402,0.441-0.864,0.811-1.316l0.029-0.043l0.075-0.082
	c0.29-0.327,1.072-1.187,2.584-1.269l0.106-0.002l0.112,0.002c1.52,0.063,2.772,1.05,3.181,2.505c0.174,0.543,0.218,1.1,0.229,1.586
	l2.54,13.101l2.352-2.572c1.793-1.887,4.612-3.115,7.204-3.161h9.613V12.037C46.122,9.33,43.908,7.105,41.195,7.105z M33.995,30.53
	l-5.088,5.547c-0.752,0.798-1.795,1.667-3.418,1.724h-0.121c-1.358,0-2.681-0.804-3.296-2.007c-0.434-0.779-0.538-1.617-0.558-2.227
	l-2.181-10.046l-1.895,3.101c-1.276,2.497-4.031,4.211-6.894,4.276H3.524v6.837c0,2.712,2.219,4.93,4.926,4.93h32.746
	c2.713,0,4.927-2.218,4.927-4.93v-8.292h-9.575C35.806,29.443,34.346,30.123,33.995,30.53z M23.934,34.897
	c-0.262-0.475-0.341-0.987-0.349-1.563l0,0L20.264,18.04l-4.651,7.618c-0.917,1.863-2.992,3.17-5.116,3.219l0,0H3.609v-2.018h6.887
	c1.129,0.047,2.807-1.01,3.229-2.027l0,0l5.414-9.283c0.184-0.386,0.357-0.703,0.578-0.983l0,0c0.226-0.242,0.497-0.591,1.188-0.628
	l0,0c0.862,0.037,1.187,0.71,1.277,1.027l0,0c0.121,0.378,0.15,0.769,0.156,1.248l0,0l3.322,17.121c0,0.07,0.003,0.14,0.006,0.201
	l0,0c0.052-0.04,0.103-0.091,0.151-0.148l0,0l5.034-5.499c1.381-1.448,3.672-2.45,5.695-2.484l0,0h9.631v2.019h-9.631
	c-1.225-0.041-3.352,0.889-4.146,1.808l0,0l-5.034,5.507c-0.55,0.568-1.107,1.01-1.951,1.048l0,0c-0.02,0-0.029,0-0.048,0l0,0
	C24.761,35.784,24.172,35.363,23.934,34.897L23.934,34.897z"/>
</svg>
