<?xml version="1.0" encoding="utf-8"?>
<!-- Generator: Adobe Illustrator 16.0.0, SVG Export Plug-In . SVG Version: 6.00 Build 0)  -->
<!DOCTYPE svg PUBLIC "-//W3C//DTD SVG 1.1//EN" "http://www.w3.org/Graphics/SVG/1.1/DTD/svg11.dtd">
<svg version="1.1" id="Layer_1" xmlns="http://www.w3.org/2000/svg" xmlns:xlink="http://www.w3.org/1999/xlink" x="0px" y="0px"
	 width="50px" height="50px" viewBox="0 0 50 50" enable-background="new 0 0 50 50" xml:space="preserve">
<path fill="#FE6400" d="M38.993,3.028H10.85c-2.503,0-4.528,1.819-4.528,4.066v1.552c0,2.245,2.025,4.07,4.528,4.07h28.144
	c2.504,0,4.533-1.825,4.533-4.07V7.094C43.526,4.848,41.497,3.028,38.993,3.028z M38.993,14.767H10.85
	c-2.503,0-4.528,1.82-4.528,4.067v1.551c0,2.245,2.025,4.067,4.528,4.067h28.144c2.504,0,4.533-1.822,4.533-4.067v-1.551
	C43.526,16.587,41.497,14.767,38.993,14.767z M38.993,26.503H10.85c-2.503,0-4.528,1.824-4.528,4.068v1.551
	c0,2.248,2.025,4.069,4.528,4.069h28.144c2.504,0,4.533-1.821,4.533-4.069v-1.551C43.526,28.327,41.497,26.503,38.993,26.503z
	 M30.66,43.084v3.085c-0.002,0.526-0.438,0.967-0.966,0.967H20.33c-0.529,0-0.968-0.44-0.968-0.967v-3.085
	c0-0.527,0.439-0.969,0.968-0.97h3.543v-4.188h2.283v4.188h3.538C30.222,42.115,30.658,42.557,30.66,43.084z M4.379,44.624
	c0,0.629,0.51,1.141,1.137,1.141h12.128v-2.28H5.516C4.889,43.484,4.379,43.997,4.379,44.624z M44.509,43.484h-12.13v2.28h12.13
	c0.63,0,1.135-0.512,1.135-1.141C45.644,43.997,45.139,43.484,44.509,43.484z"/>
</svg>
