<?xml version="1.0" encoding="utf-8"?>
<!-- Generator: Adobe Illustrator 16.0.0, SVG Export Plug-In . SVG Version: 6.00 Build 0)  -->
<!DOCTYPE svg PUBLIC "-//W3C//DTD SVG 1.1//EN" "http://www.w3.org/Graphics/SVG/1.1/DTD/svg11.dtd">
<svg version="1.1" id="Layer_1" xmlns="http://www.w3.org/2000/svg" xmlns:xlink="http://www.w3.org/1999/xlink" x="0px" y="0px"
	 width="50px" height="50px" viewBox="0 0 50 50" enable-background="new 0 0 50 50" xml:space="preserve">
<path fill="#FE6400" d="M2.11,13.666v-1.673C2.11,9.567,4.296,7.6,7.003,7.6h30.377c2.707,0,4.895,1.968,4.895,4.394v1.673
	c0,0.854-0.284,1.646-0.754,2.32c-1.111-0.485-2.332-0.765-3.618-0.765c-2.579,0-4.907,1.093-6.555,2.837H7.003
	C4.296,18.059,2.11,16.092,2.11,13.666z M37.903,22.284c-1.094,0-1.985,0.889-1.985,1.983v2.268h3.973v-2.268
	C39.891,23.173,38.998,22.284,37.903,22.284z M7.003,30.46h19.018c0.286-1.601,1.374-2.94,2.838-3.556v-2.637
	c0-1.541,0.389-2.994,1.074-4.269H7.003c-2.707,0-4.893,1.97-4.893,4.393v1.673C2.11,28.494,4.296,30.46,7.003,30.46z
	 M25.942,40.138v-7.736H7.003c-2.707,0-4.893,1.965-4.893,4.388v1.68c0,2.423,2.186,4.396,4.893,4.396H26.81
	C26.266,42.089,25.942,41.147,25.942,40.138z M47.928,31.29v8.848c0,1.558-1.264,2.821-2.826,2.821H30.7
	c-1.563,0-2.827-1.264-2.827-2.821V31.29c0-1.56,1.265-2.823,2.827-2.823h14.401C46.664,28.467,47.928,29.73,47.928,31.29z
	 M39.898,34.165c0-1.104-0.895-2.005-1.995-2.005c-1.104,0-2.003,0.9-2.003,2.005c0,0.655,0.32,1.238,0.808,1.606v2.425
	c0,0.657,0.535,1.192,1.195,1.192c0.657,0,1.19-0.535,1.19-1.192v-2.425C39.582,35.403,39.898,34.82,39.898,34.165z M33.986,24.268
	c0-2.161,1.76-3.918,3.917-3.918c2.159,0,3.919,1.757,3.919,3.918v3.135h3.188v-3.135c0-3.918-3.188-7.107-7.106-7.107
	c-3.917,0-7.111,3.189-7.111,7.107v3.135h3.194V24.268z"/>
</svg>
