<?xml version="1.0" encoding="utf-8"?>
<!-- Generator: Adobe Illustrator 16.0.0, SVG Export Plug-In . SVG Version: 6.00 Build 0)  -->
<!DOCTYPE svg PUBLIC "-//W3C//DTD SVG 1.1//EN" "http://www.w3.org/Graphics/SVG/1.1/DTD/svg11.dtd">
<svg version="1.1" id="Layer_1" xmlns="http://www.w3.org/2000/svg" xmlns:xlink="http://www.w3.org/1999/xlink" x="0px" y="0px"
	 width="50px" height="50px" viewBox="0 0 50 50" enable-background="new 0 0 50 50" xml:space="preserve">
<path fill="#FE6400" d="M28.755,37.162c0,0.538-0.472,0.982-1.033,0.982h-5.606c-0.565,0-1.022-0.444-1.022-0.982V27.081
	c0-0.542,0.457-0.981,1.022-0.981h5.606c0.562,0,1.033,0.439,1.033,0.981V37.162z M25.783,10.305c-0.549-0.453-1.46-0.453-1.762,0
	L10.288,21.514c-0.802,0.456-1.262,1.394-1.262,2.09v13.309c0,0.697,0.599,1.264,1.327,1.264h7.334c0.73,0,1.326-0.566,1.326-1.264
	V25.36c0-0.697,0.599-1.266,1.335-1.266h9.086c0.729,0,1.328,0.569,1.328,1.266v11.552c0,0.697,0.596,1.264,1.333,1.264h7.102
	c0.729,0,1.324-0.566,1.324-1.264V23.601c0-0.695-0.457-1.637-1.009-2.088L25.783,10.305z M26.58,1.144
	c-1.021-0.884-2.583-0.884-3.608,0L3.549,17.083c-1.094,0.951-1.174,2.566-0.18,3.613c0.53,0.56,2.55,1.367,3.798,0.178
	L24.771,6.497l17.614,14.375c1.096,0.951,2.795,0.875,3.796-0.174c1.002-1.047,0.916-2.663-0.185-3.613L26.58,1.144z M29.79,44.312
	h-3.763v-4.261h-2.427v4.261h-3.771c-0.558,0.001-1.028,0.447-1.031,0.981v3.123c0.003,0.534,0.474,0.98,1.031,0.98h9.961
	c0.561,0,1.028-0.446,1.031-0.98v-3.123C30.818,44.759,30.351,44.313,29.79,44.312z M3.447,45.697h13.529v2.313H3.447
	c-0.671,0-1.214-0.521-1.214-1.158C2.233,46.217,2.776,45.697,3.447,45.697z M47.386,46.853c0,0.637-0.543,1.158-1.21,1.158H32.647
	v-2.313h13.528C46.843,45.697,47.386,46.217,47.386,46.853z"/>
</svg>
