<?xml version="1.0" encoding="utf-8"?>
<!-- Generator: Adobe Illustrator 16.0.0, SVG Export Plug-In . SVG Version: 6.00 Build 0)  -->
<!DOCTYPE svg PUBLIC "-//W3C//DTD SVG 1.1//EN" "http://www.w3.org/Graphics/SVG/1.1/DTD/svg11.dtd">
<svg version="1.1" id="Layer_1" xmlns="http://www.w3.org/2000/svg" xmlns:xlink="http://www.w3.org/1999/xlink" x="0px" y="0px"
	 width="50px" height="50px" viewBox="0 0 50 50" enable-background="new 0 0 50 50" xml:space="preserve">
<path fill="#FE6400" d="M0.553,13.34v-1.642c0-2.379,2.146-4.305,4.8-4.305H35.14c2.653,0,4.796,1.926,4.796,4.305v1.642
	c0,2.379-2.143,4.307-4.796,4.307H5.353C2.698,17.646,0.553,15.719,0.553,13.34z M5.353,29.805H25.97
	c0.395-1.965,2.133-3.452,4.22-3.452h4.143v-4.149c0-1.002,0.358-1.911,0.937-2.639c-0.047-0.003-0.084-0.013-0.129-0.013H5.353
	c-2.654,0-4.8,1.93-4.8,4.31V25.5C0.553,27.88,2.698,29.805,5.353,29.805z M34.332,39.094v-4.155h-4.143
	c-2.002,0-3.672-1.374-4.152-3.229H5.353c-2.654,0-4.8,1.93-4.8,4.308v1.643c0,2.38,2.146,4.305,4.8,4.305H35.14
	c0.102,0,0.202-0.023,0.304-0.026C34.761,41.182,34.332,40.186,34.332,39.094z M27.809,30.645c0,1.311,1.063,2.369,2.381,2.369
	h6.063v6.08c0,1.309,1.062,2.367,2.383,2.367c1.301,0,2.359-1.059,2.359-2.367v-6.08h6.077c1.311,0,2.376-1.059,2.376-2.369
	c0-1.31-1.065-2.368-2.376-2.368h-6.077v-6.073c0-1.311-1.059-2.372-2.359-2.372c-1.321,0-2.383,1.062-2.383,2.372v6.073h-6.063
	C28.871,28.276,27.809,29.335,27.809,30.645z"/>
</svg>
