<?xml version="1.0" encoding="utf-8"?>
<!-- Generator: Adobe Illustrator 16.0.0, SVG Export Plug-In . SVG Version: 6.00 Build 0)  -->
<!DOCTYPE svg PUBLIC "-//W3C//DTD SVG 1.1//EN" "http://www.w3.org/Graphics/SVG/1.1/DTD/svg11.dtd">
<svg version="1.1" id="Capa_1" xmlns="http://www.w3.org/2000/svg" xmlns:xlink="http://www.w3.org/1999/xlink" x="0px" y="0px"
	 width="79.042px" height="87px" viewBox="0 10.042 79.042 87" enable-background="new 0 10.042 79.042 87" xml:space="preserve">
<g>
	<g>
		<path fill="#FE6400" d="M59.3,56.887H22.36c-3.061,0-5.542,2.471-5.542,5.52v1.841c0,3.046,2.481,5.519,5.542,5.519h16.624v5.517
			H26.05c-1.017,0-1.845,0.821-1.845,1.841c0,1.016,0.828,1.837,1.845,1.837h29.559c1.021,0,1.845-0.821,1.845-1.837
			c0-1.02-0.824-1.841-1.845-1.841h-12.93v-5.517h16.624c3.059,0,5.542-2.473,5.542-5.519v-1.841
			C64.843,59.358,62.36,56.887,59.3,56.887z M23.283,66.084c-1.529,0-2.77-1.234-2.77-2.759c0-1.521,1.24-2.756,2.77-2.756
			s2.768,1.235,2.768,2.756C26.05,64.85,24.812,66.084,23.283,66.084z M32.517,66.084c-1.53,0-2.771-1.234-2.771-2.759
			c0-1.521,1.243-2.756,2.771-2.756s2.771,1.235,2.771,2.756C35.289,64.85,34.048,66.084,32.517,66.084z M41.752,66.084
			c-1.528,0-2.769-1.234-2.769-2.759c0-1.521,1.24-2.756,2.769-2.756c1.53,0,2.77,1.235,2.77,2.756
			C44.526,64.85,43.283,66.084,41.752,66.084z M58.377,66.084c-1.529,0-2.769-1.234-2.769-2.759c0-1.521,1.239-2.756,2.769-2.756
			c1.528,0,2.768,1.235,2.768,2.756C61.15,64.85,59.906,66.084,58.377,66.084z"/>
		<path fill="#FE6400" d="M59.3,55.048c2.088,0,3.994,0.717,5.543,1.882L59.3,36.653c-0.693-3.031-2.481-5.519-5.542-5.519H27.901
			c-3.06,0-5.065,2.487-5.541,5.519L16.818,56.93c1.548-1.165,3.453-1.882,5.542-1.882H59.3z M38.984,36.653h3.692
			c5.465,0,12.929,1.871,12.929,9.196c0,0.832-0.828,1.839-1.847,1.839h-5.541c-1.018,0-1.846-0.823-1.846-1.839
			c0,0,0-1.797,0-3.679c0-1.88-1.85-1.84-1.85-1.84h-7.387c0,0-1.851,0.045-1.851,1.84c0,1.796,0,3.679,0,3.679
			c0,1.016-0.829,1.839-1.846,1.839h-5.538c-1.021,0-1.851-0.98-1.851-1.839C26.05,38.524,33.516,36.653,38.984,36.653z"/>
	</g>
</g>
</svg>
