<?xml version="1.0" encoding="utf-8"?>
<!-- Generator: Adobe Illustrator 16.0.0, SVG Export Plug-In . SVG Version: 6.00 Build 0)  -->
<!DOCTYPE svg PUBLIC "-//W3C//DTD SVG 1.1//EN" "http://www.w3.org/Graphics/SVG/1.1/DTD/svg11.dtd">
<svg version="1.1" id="Layer_1" xmlns="http://www.w3.org/2000/svg" xmlns:xlink="http://www.w3.org/1999/xlink" x="0px" y="0px"
	 width="50px" height="50px" viewBox="0 0 50 50" enable-background="new 0 0 50 50" xml:space="preserve">
<path fill="#FE6400" d="M0.373,13.31v-1.616c0-2.343,2.012-4.242,4.505-4.242h27.957c2.487,0,4.499,1.899,4.499,4.242v1.616
	c0,2.343-2.012,4.247-4.499,4.247H4.878C2.384,17.557,0.373,15.653,0.373,13.31z M28.067,40.439l1.071-9.026H4.878
	c-2.494,0-4.505,1.899-4.505,4.241v1.618c0,2.341,2.012,4.244,4.505,4.244H28.11C28.025,41.176,28.01,40.809,28.067,40.439z
	 M4.878,29.536h25.398l5.722-8.875c-0.81-0.758-1.929-1.229-3.163-1.229H4.878c-2.494,0-4.505,1.897-4.505,4.243v1.617
	C0.373,27.636,2.384,29.536,4.878,29.536z M42.605,14.428c0.473-0.735,1.434-0.917,2.14-0.416l4.183,3.019
	c0.692,0.503,0.875,1.506,0.404,2.237l-1.911,2.911l-6.715-4.844L42.605,14.428z M30.582,35.222l4.815,3.467l-4.9,2.546
	c-0.44,0.25-0.722-0.025-0.65-0.471L30.582,35.222z M39.448,19.26l6.713,4.834l-8.039,12.296L31.4,31.549L39.448,19.26z"/>
</svg>
