<?xml version="1.0" encoding="utf-8"?>
<!-- Generator: Adobe Illustrator 16.0.0, SVG Export Plug-In . SVG Version: 6.00 Build 0)  -->
<!DOCTYPE svg PUBLIC "-//W3C//DTD SVG 1.1//EN" "http://www.w3.org/Graphics/SVG/1.1/DTD/svg11.dtd">
<svg version="1.1" id="Layer_1" xmlns="http://www.w3.org/2000/svg" xmlns:xlink="http://www.w3.org/1999/xlink" x="0px" y="0px"
	 width="50px" height="50px" viewBox="0 0 50 50" enable-background="new 0 0 50 50" xml:space="preserve">
<path fill="#FE6400" d="M10.449,24.888h29.57c1.42,0,2.564-1.176,2.564-2.632V3.149c0-1.457-1.145-2.639-2.564-2.639h-29.57
	c-1.416,0-2.562,1.182-2.562,2.639v19.106C7.887,23.711,9.034,24.888,10.449,24.888z M10.59,4.449c0-0.659,0.511-1.191,1.138-1.191
	h26.907c0.626,0,1.138,0.533,1.138,1.191v16.23c0,0.661-0.512,1.197-1.138,1.197H11.729c-0.627,0-1.138-0.537-1.138-1.197V4.449z
	 M38.757,27.242h-27.01c-2.698,0-4.886,1.734-4.886,3.875v1.475c0,2.143,2.188,3.876,4.886,3.876h27.01
	c2.699,0,4.888-1.733,4.888-3.876v-1.475C43.645,28.977,41.456,27.242,38.757,27.242z M30.841,43.858v3.235
	c-0.005,0.553-0.464,1.014-1.017,1.014h-9.816c-0.554,0-1.016-0.461-1.016-1.014v-3.235c0-0.552,0.462-1.013,1.016-1.013h3.716
	v-4.404h2.395v4.404h3.705C30.377,42.846,30.836,43.307,30.841,43.858z M3.287,45.475c0,0.66,0.534,1.196,1.195,1.196h12.712v-2.392
	H4.482C3.82,44.279,3.287,44.816,3.287,45.475z M45.354,44.279H32.641v2.392h12.713c0.658,0,1.195-0.536,1.195-1.196
	C46.549,44.816,46.012,44.279,45.354,44.279z"/>
</svg>
