<?xml version="1.0" encoding="utf-8"?>
<!-- Generator: Adobe Illustrator 16.0.0, SVG Export Plug-In . SVG Version: 6.00 Build 0)  -->
<!DOCTYPE svg PUBLIC "-//W3C//DTD SVG 1.1//EN" "http://www.w3.org/Graphics/SVG/1.1/DTD/svg11.dtd">
<svg version="1.1" id="Layer_1" xmlns="http://www.w3.org/2000/svg" xmlns:xlink="http://www.w3.org/1999/xlink" x="0px" y="0px"
	 width="50px" height="50px" viewBox="0 0 50 50" enable-background="new 0 0 50 50" xml:space="preserve">
<path fill="#FE6400" d="M42.703,35.377l-9.064-8.876l9.963-9.927c2.149-2.146,2.149-5.633,0-7.774c-2.148-2.149-5.633-2.149-7.78,0
	L25.777,18.807l-2.109-2.066c0.215-0.813,0.343-1.674,0.343-2.562c0-5.56-4.512-10.076-10.076-10.076
	c-1.369,0-2.671,0.272-3.861,0.767l5.403,5.401c0.978,0.979,0.978,2.575,0,3.549l-2.058,2.057c-0.971,0.976-2.569,0.976-3.544,0
	l-5.334-5.335c-0.435,1.131-0.688,2.355-0.688,3.638c0,5.569,4.515,10.082,10.082,10.082c1.185,0,2.316-0.216,3.371-0.594
	c1.125,1.23,2.513,2.75,4.016,4.395l-5.063,5.105l-3.06,0.648l-5.505,8.344l2.073,2.083l8.355-5.51l0.647-3.063l4.951-4.984
	c5.086,5.571,10.549,11.542,11.345,12.337l-0.001,0.004c2.123,2.132,5.566,2.146,7.68,0.039
	C44.852,40.952,44.836,37.513,42.703,35.377L42.703,35.377z M25.697,23.717c-0.394-0.397-0.394-1.037,0-1.434L37.76,10.225
	c0.391-0.4,1.041-0.4,1.435,0c0.397,0.402,0.397,1.038-0.003,1.441L27.134,23.719C26.736,24.123,26.092,24.123,25.697,23.717z
	 M28.641,26.659c-0.4-0.397-0.4-1.04,0.003-1.437l12.058-12.059c0.398-0.398,1.033-0.398,1.432,0c0.402,0.398,0.402,1.045,0,1.43
	L30.078,26.659C29.684,27.062,29.033,27.059,28.641,26.659z M40.484,40.807c-0.853,0.848-2.234,0.848-3.088,0
	c-0.85-0.853-0.85-2.235,0-3.084c0.854-0.849,2.235-0.849,3.088,0C41.338,38.571,41.338,39.954,40.484,40.807z"/>
</svg>
